<?xml version="1.0" ?><svg height="1000" width="1000" xmlns="http://www.w3.org/2000/svg"><path d="M719 941c-16-5-29-12-35-21s-7-13-7-40l1-46 2-77v-55H371c-337 0-314 0-323-5l-7-8-2-4V115l2-4c1-3 3-6 5-7 5-5 8-6 31-6h22V87c0-8 0-11 2-15s8-10 12-11c7-3 131 0 184 4a405 405 0 01183 44l8-5c32-20 88-33 175-39a2420 2420 0 01185-3l6 5c5 5 6 8 6 20v11h22c24 0 27 0 32 6l5 6 3 5v247l7 11c21 34 31 72 31 114 0 41-11 79-33 115l-5 8v75l-3 4-7 8c-8 5-9 5-62 5h-48v55a3758 3758 0 003 123c0 20 0 25-2 30-3 11-10 18-24 25-18 8-41 10-60 6z" fill="#d3f5fd"/><path d="M719 940c-23-6-35-16-40-30l-1-32 1-57 1-76v-44H369l-314-1c-6-2-12-8-14-12l-2-5V400l1-286 5-8c6-7 7-7 31-7l23-1 1-12c0-11 1-14 5-19 7-7 5-6 51-6 173 1 273 15 318 45l6 4 6-4c45-30 145-44 317-45h42l4 2 8 8c2 4 2 5 2 15l1 12 23 1c25 0 26 0 32 7l5 8 1 126v122l6 9a221 221 0 0131 148c-5 29-15 57-31 83l-6 9v36c0 35 0 37-2 41s-8 10-14 12l-53 1h-50v59a4742 4742 0 002 144c-2 10-4 14-11 21-5 5-14 10-27 14-10 3-36 4-47 1zm46-319c6 0 13-2 17-3 7-3 7-3 7-6 0-4 2-9 4-12l10-7c11-7 18-12 27-22 10-10 13-11 22-8l5 1 11-18c4-8 10-24 11-34 2-7 2-7 0-8l-3-1c-3 0-10-7-11-11l-1-9a123 123 0 00-118-117l-10-2c-4-1-10-6-11-11l-1-3h-5c-7 1-27 8-36 12-10 6-24 15-32 23l-7 7 1 3c2 3 2 5 2 9 0 5 0 6-4 12a124 124 0 00-17 110c4 9 3 13-1 18l-2 5a133 133 0 0079 67c20 7 42 9 63 5z" fill="#fceebb"/><path d="M719 940c-23-6-35-16-40-30l-1-32 1-57 1-76v-44H369l-314-1c-6-2-12-8-14-12l-2-5V400l1-286 5-8c6-7 7-7 31-7l23-1 1-12c0-11 1-14 5-19 7-7 5-6 51-6 173 1 273 15 318 45l6 4 6-4c45-30 145-44 317-45h42l4 2 8 8c2 4 2 5 2 15l1 12 23 1c25 0 26 0 32 7l5 8 1 126v122l6 9a221 221 0 0131 148c-5 29-15 57-31 83l-6 9v36c0 35 0 37-2 41s-8 10-14 12l-53 1h-50v59a4742 4742 0 002 144c-2 10-4 14-11 21-5 5-14 10-27 14-10 3-36 4-47 1zM509 635a305 305 0 0160-18l-7-12a215 215 0 0128-272c33-34 74-54 121-62l11-1-1-4c-1-8 1-13 6-17 3-2 5-3 18-3 16 0 21 1 24 5 4 5 5 9 3 14l-1 5 7 2a231 231 0 0161 19l1-14v-13l-5-1c-6-2-11-6-14-11-2-5-2-6-2-77l-1-73c-4-4-144 2-194 8-60 7-105 19-121 34l-4 4 1 60v60l-2 5-7 8c-4 2-5 3-11 3s-7-1-11-4c-3-1-5-4-7-7l-2-5-1-61v-61l-3-3c-5-4-19-11-31-15-21-8-53-14-88-18-38-5-142-10-181-9l-15 1-1 48c0 43-1 49-2 52-3 4-9 9-14 10l-4 1v55l4 1c5 1 11 6 14 10 1 3 2 14 2 163l1 159h23c65 0 142 4 181 9a423 423 0 01113 27l1-33c1-31 1-33 3-37 2-3 4-6 7-7 4-3 5-3 11-3s7 0 11 3l7 7 2 5v32 34l9-3zM193 524c-8-4-11-16-5-24 4-5 7-5 37-5 31 0 33 0 37 6 3 5 3 13 0 18-4 6-6 6-37 6l-32-1zm115 0c-8-4-11-16-5-24 4-5 6-5 49-5s44 0 48 6c3 5 3 13 0 18-4 6-5 6-49 6l-43-1zm-115-80c-8-4-11-16-5-24 5-5 2-5 86-5h77l3 2c5 4 8 8 8 13s-3 9-8 13l-3 2h-77l-81-1zm281-69c-5-2-10-6-12-10-3-6-4-17-2-22 7-14 22-17 33-7 4 5 6 10 6 19 0 14-13 24-26 20zm-281-11c-8-4-11-16-5-24 4-4 8-5 21-5 12 0 13 0 16 2 10 7 10 19 0 26-3 2-4 2-16 2l-16-1zm0-80c-8-4-11-16-5-24 5-5 0-5 109-5h100l3 2c5 4 8 8 8 13s-3 9-8 13l-3 2H297l-104-1zm382-11c-4-3-8-8-8-13s4-10 8-13c4-2 4-2 52-2 47 0 48 1 51 3 8 6 8 18 0 24-3 2-4 3-51 3-48 0-49 0-52-2zm-383-68c-8-4-11-16-5-24 4-5 6-5 44-5 35 0 36 0 39 2 10 7 10 19 0 26-3 2-3 2-39 2l-39-1zm119-1c-8-4-11-16-5-24 4-5 7-5 33-5 23 0 24 0 27 2 5 3 8 9 8 13s-3 10-8 13c-3 2-4 2-27 2l-28-1zm307-1c-4-3-8-8-8-13s4-10 8-13c4-2 4-2 75-2 70 0 71 1 74 3 8 6 8 18 0 24-3 2-4 3-74 3-71 0-72 0-75-2zm147 418c6 0 13-2 17-3 7-3 7-3 7-6 0-4 2-9 4-12l10-7c11-7 18-12 27-22 10-10 13-11 22-8l5 1 11-18c4-8 10-24 11-34 2-7 2-7 0-8l-3-1c-3 0-10-7-11-11l-1-9a123 123 0 00-118-117l-10-2c-4-1-10-6-11-11l-1-3h-5c-7 1-27 8-36 12-10 6-24 15-32 23l-7 7 1 3c2 3 2 5 2 9 0 5 0 6-4 12a124 124 0 00-17 110c4 9 3 13-1 18l-2 5a133 133 0 0079 67c20 7 42 9 63 5z" fill="#aad6df"/><path d="M717 938c-18-5-30-13-35-23-5-11-5-13-2-104l1-73v-37l-312-1-314-1c-6-3-11-7-13-11l-2-5V399c0-274 0-284 2-288 2-5 8-10 14-11l24-1c17 0 20 0 20-2l1-11c0-11 1-14 5-18 6-7 4-6 53-6 135 0 222 9 277 28a198 198 0 0144 21l6-4c8-5 26-13 38-17 55-19 141-28 277-28 47 0 46 0 51 5 6 5 7 7 7 20v12h23c13 0 24 1 25 2 4 2 9 6 11 10s2 10 2 128v123l6 9a220 220 0 0131 149c-6 29-16 56-31 82l-6 9v36c0 35 0 37-2 41s-7 8-12 11l-53 1-51 1-1 37 1 73c3 91 3 93-2 104-5 10-17 18-35 23-8 3-11 3-24 3s-17 0-24-3zm39-38l8-4v-51a2799 2799 0 01-3-80c-1-2-2-2-20-2s-19 0-20 2l-1 18a2713 2713 0 01-3 112c2 6 25 9 39 5zm-12-221l2-3c0-3 6-10 10-12l11-3 8-1 8-2 17-5a177 177 0 00-32-342 177 177 0 00-70 346l13 5c4 2 9 9 9 13l1 4c1 2 2 2 11 2s11 0 12-2zm55-55l-5-5c-2-3-3-4-3-8 0-7 3-12 10-15 8-5 22-15 29-22 8-9 11-11 16-11 10 0 16 8 15 17-1 4-2 6-9 13-10 10-21 18-32 26-11 6-16 7-21 5zm-190-75l-5-3c-5-3-7-8-11-23a155 155 0 0129-130c9-10 24-3 24 11 0 5 0 6-5 13-15 21-22 44-22 70 0 15 2 27 6 40l3 9-2 5-5 6c-3 2-9 3-12 2zm269-47c-9-2-12-6-13-22-1-14-3-26-7-36a125 125 0 00-109-80c-14-1-18-2-21-8-4-7-3-13 3-18 4-4 9-5 24-3a153 153 0 01140 155c-1 5-5 10-10 12h-8zM509 635a305 305 0 0160-18l-7-12a215 215 0 0128-272c33-34 74-54 121-62l11-1-1-4c-1-8 1-13 6-17 3-2 5-3 18-3 16 0 21 1 24 5 4 5 5 9 3 14l-1 5 7 2a231 231 0 0161 19l1-14v-13l-5-1c-6-2-11-6-14-11-2-5-2-6-2-77l-1-73c-4-4-144 2-194 8-60 7-105 19-121 34l-4 4 1 60v60l-2 5-7 8c-4 2-5 3-11 3s-7-1-11-4c-3-1-5-4-7-7l-2-5-1-61v-61l-3-3c-5-4-19-11-31-15-21-8-53-14-88-18-38-5-142-10-181-9l-15 1-1 48c0 43-1 49-2 52-3 4-9 9-14 10l-4 1v55l4 1c5 1 11 6 14 10 1 3 2 14 2 163l1 159h23c65 0 142 4 181 9a423 423 0 01113 27l1-33c1-31 1-33 3-37 2-3 4-6 7-7 4-3 5-3 11-3s7 0 11 3l7 7 2 5v32 34l9-3zM193 524c-8-4-11-16-5-24 4-5 7-5 37-5 31 0 33 0 37 6 3 5 3 13 0 18-4 6-6 6-37 6l-32-1zm115 0c-8-4-11-16-5-24 4-5 6-5 49-5s44 0 48 6c3 5 3 13 0 18-4 6-5 6-49 6l-43-1zm-115-80c-8-4-11-16-5-24 5-5 2-5 86-5h77l3 2c5 4 8 8 8 13s-3 9-8 13l-3 2h-77l-81-1zm281-69c-5-2-10-6-12-10-3-6-4-17-2-22 7-14 22-17 33-7 4 5 6 10 6 19 0 14-13 24-26 20zm-281-11c-8-4-11-16-5-24 4-4 8-5 21-5 12 0 13 0 16 2 10 7 10 19 0 26-3 2-4 2-16 2l-16-1zm0-80c-8-4-11-16-5-24 5-5 0-5 109-5h100l3 2c5 4 8 8 8 13s-3 9-8 13l-3 2H297l-104-1zm382-11c-4-3-8-8-8-13s4-10 8-13c4-2 4-2 52-2 47 0 48 1 51 3 8 6 8 18 0 24-3 2-4 3-51 3-48 0-49 0-52-2zm-383-68c-8-4-11-16-5-24 4-5 6-5 44-5 35 0 36 0 39 2 10 7 10 19 0 26-3 2-3 2-39 2l-39-1zm119-1c-8-4-11-16-5-24 4-5 7-5 33-5 23 0 24 0 27 2 5 3 8 9 8 13s-3 10-8 13c-3 2-4 2-27 2l-28-1zm307-1c-4-3-8-8-8-13s4-10 8-13c4-2 4-2 75-2 70 0 71 1 74 3 8 6 8 18 0 24-3 2-4 3-74 3-71 0-72 0-75-2z" fill="#f6ad88"/><path d="M717 938c-18-5-30-13-35-23-5-11-5-13-2-104l1-73v-37l-312-1-314-1c-6-3-11-7-13-11l-2-5V399c0-274 0-284 2-288 2-5 8-10 14-11l24-1c17 0 20 0 20-2l1-11c0-11 1-14 5-18 6-7 4-6 53-6 135 0 222 9 277 28a198 198 0 0144 21l6-4c8-5 26-13 38-17 55-19 141-28 277-28 47 0 46 0 51 5 6 5 7 7 7 20v12h23c13 0 24 1 25 2 4 2 9 6 11 10s2 10 2 128v123l6 9a220 220 0 0131 149c-6 29-16 56-31 82l-6 9v36c0 35 0 37-2 41s-7 8-12 11l-53 1-51 1-1 37 1 73c3 91 3 93-2 104-5 10-17 18-35 23-8 3-11 3-24 3s-17 0-24-3zm39-38l8-4v-51a2799 2799 0 01-3-80c-1-2-2-2-20-2s-19 0-20 2l-1 18a2713 2713 0 01-3 112c2 6 25 9 39 5zm-12-221l2-3c0-3 6-10 10-12l11-3 8-1 8-2 17-5a177 177 0 00-32-342 177 177 0 00-70 346l13 5c4 2 9 9 9 13l1 4c1 2 2 2 11 2s11 0 12-2zm55-55l-5-5c-2-3-3-4-3-8 0-7 3-12 10-15 8-5 22-15 29-22 8-9 11-11 16-11 10 0 16 8 15 17-1 4-2 6-9 13-10 10-21 18-32 26-11 6-16 7-21 5zm-190-75l-5-3c-5-3-7-8-11-23a155 155 0 0129-130c9-10 24-3 24 11 0 5 0 6-5 13-15 21-22 44-22 70 0 15 2 27 6 40l3 9-2 5-5 6c-3 2-9 3-12 2zm269-47c-9-2-12-6-13-22-1-14-3-26-7-36a125 125 0 00-109-80c-14-1-18-2-21-8-4-7-3-13 3-18 4-4 9-5 24-3a153 153 0 01140 155c-1 5-5 10-10 12h-8zM398 660c0-2-37-8-72-12a2401 2401 0 00-154-7h-58l-4-4c-3-1-6-5-7-7l-2-4V284l2-4c1-3 4-6 6-7 4-3 5-3 11-3 5 0 7 0 10 2 5 3 8 8 9 13l1 160v156h8l37 1a811 811 0 01274 35l1-33c1-36 1-37 7-43 4-3 9-5 13-5 7 0 14 5 18 12l1 37 1 33 11-4a288 288 0 0158-17c1-1 0-3-2-5a224 224 0 01-40-125 217 217 0 01196-217l-1-4c-3-6 0-13 6-17 3-2 4-2 19-2s16 0 19 2c6 5 9 12 6 18-2 4-1 5 7 6a228 228 0 01101 45l1-89v-90h-22v53l-1 56c-2 6-8 12-14 14-8 2-19-2-23-11-1-3-2-8-2-76v-73l-26-1c-69-1-158 5-207 14-40 6-73 18-83 29l-4 4v47l1 58c0 14-1 20-7 25-4 4-9 6-14 6-7 0-16-8-18-15l-1-63-1-60-3-3c-6-7-30-17-55-23-48-12-135-19-230-19h-31v46l-1 49c-1 5-4 10-9 13-3 2-5 3-10 3-6 0-7-1-11-3-8-6-8-8-9-40l-1-29-10-1H79v260l1 261h318zM195 524c-3-1-7-5-9-8-3-6 0-14 6-18 3-2 4-3 33-3h30l4 4c2 1 4 4 5 7v8c-1 3-3 6-5 7l-4 4h-29l-31-1zm115 0c-3-1-7-5-9-8-3-6 0-14 6-18 3-2 4-3 44-3h42l4 4c2 1 4 4 5 7v8c-1 3-3 6-5 7l-4 3-40 1-43-1zm-115-80c-3-1-7-5-9-8-3-6 0-14 6-18 3-2 4-3 79-3 69 0 77 0 81 2 12 4 12 21 1 26-4 2-8 2-80 2l-78-1zm277-71c-8-3-11-9-12-19-1-5-1-7 1-11 4-9 13-13 22-12 6 1 13 8 14 14 4 12 2 20-6 26-3 3-5 3-10 4-5 0-7 0-9-2zm-277-9c-9-4-13-14-8-21s7-7 20-8c11 0 13 0 17 2 11 6 11 20 0 26-4 2-6 2-15 2l-14-1zm0-80c-3-1-7-5-9-8-3-6 0-14 6-18 3-2 3-3 102-3 90 0 100 0 104 2 12 4 12 21 1 26-4 2-9 2-103 2l-101-1zm381-11c-5-3-8-8-8-13s3-10 8-13l4-2h47c46 0 47 1 50 3 4 3 7 8 7 12s-3 9-7 12c-3 2-4 3-50 3h-46zm-382-68c-3-1-7-5-9-8-3-6 0-14 6-18 3-2 4-3 38-3 35 0 36 0 40 2 11 6 11 20 0 26-4 2-5 2-38 2l-37-1zm119-1c-9-4-13-14-8-21s5-7 32-8c23 0 24 0 28 2 11 6 11 20 0 26-4 2-6 2-27 2l-25-1zm306-1c-5-3-8-8-8-13s3-10 8-13l4-2h70c69 0 70 1 73 3 4 3 7 8 7 12s-3 9-7 12c-3 2-4 3-73 3h-69zm-6 457c0-1-9-8-11-8l-40 8 25 1 26-1zm268-2c0-4-1-4-5-1s-4 4 1 4c3 0 4-1 4-3z" fill="#989c96"/><path d="M721 938c-20-5-32-13-37-23s-5-16-4-77l2-98v-40l-313-1c-263 0-313-1-315-2-6-3-9-6-11-10s-2-13-2-288V116l2-5 7-7c3-2 4-3 27-3l24-1 1-13c0-12 1-13 3-17 5-7 5-7 50-7 94 0 168 5 221 14a263 263 0 01104 35l8-4c19-13 53-24 96-31 53-9 127-14 220-14 44 0 45 0 49 6 4 5 5 9 4 20l1 11 25 1c23 0 24 1 27 3l7 7 2 5v246l7 11a219 219 0 0130 144c-5 30-16 59-31 83l-6 10v36c0 41 0 42-7 47-7 6-5 5-60 6l-51 1-1 41 2 97c1 61 1 67-4 77-5 11-18 19-38 23-9 3-30 2-40 0zm36-37l7-3 2-1v-30a7369 7369 0 00-4-125v-40l-6-3c-11-6-13-18-5-29 3-4 9-7 13-7l9-1 14-4a178 178 0 10-90 0c13 4 17 6 20 13l3 5v44a3404 3404 0 01-3 157v21l4 2c8 4 24 5 36 1zm39-281c-3-3-3-4-4-9 0-6 2-10 12-16 11-6 24-17 29-23 7-8 12-10 19-7 5 3 7 7 7 13 0 5 0 5-5 11-12 12-22 21-36 29-7 4-9 5-13 5s-6-1-9-3zm-192-75c-4-4-4-5-8-17a154 154 0 0120-125c7-11 10-13 16-13 11 0 17 13 10 22-11 15-18 31-22 50-4 20-2 48 4 66 3 6 3 7 1 11-2 6-6 9-12 9-4 0-6-1-9-3zm269-46c-4-3-6-6-6-17a125 125 0 00-120-120c-12 0-15-2-18-6-3-5-3-11 1-16 4-4 8-5 22-4a150 150 0 01138 121c3 11 4 30 3 35l-5 6c-4 4-10 4-15 1zM401 661c3-2-28-8-65-12-39-5-121-9-183-9-41 0-42 0-47-7-6-8-6 2-5-179V286l2-5c1-3 3-6 6-8s4-2 10-2c8 0 14 3 17 10l3 5v157l1 159 33 1c69 0 143 4 189 11a380 380 0 0197 25c1-1 2-8 2-34 1-35 1-37 7-42 3-4 7-5 12-5s9 1 12 5c6 5 6 6 6 43v34h2l13-5a318 318 0 0158-18l-7-12a215 215 0 01149-332c12-2 12-2 10-7-1-4-1-6 1-11 3-6 5-7 23-7s20 1 23 7c2 5 2 8 0 11-2 4-1 6 1 6l13 3a234 234 0 0197 43V139l-12-1-10 1-1 55c0 48-1 55-2 58-4 7-11 10-19 9-6-1-8-2-11-6-6-5-5-3-6-82v-73h-36c-148 0-254 16-282 43l-5 4 1 59v62c-1 5-6 10-10 13-4 2-12 2-15 0-4-2-8-6-10-10l-2-64-1-62-3-4c-17-14-61-26-119-33a1488 1488 0 00-199-7v48l-1 47-2 4c-3 7-8 10-17 10-6 0-7 0-10-2-7-6-8-8-8-39l-1-29c0-2 0-2-10-2-9 0-11 0-11 2a28491 28491 0 000 521c2 1 320 2 322 0zM192 521c-3-2-6-7-6-11s3-9 6-11 6-2 33-2h30l4 4c4 3 4 4 4 9s0 6-4 9l-4 4h-30c-27 0-30 0-33-2zm115 0c-3-2-6-7-6-11s3-9 6-11 6-2 45-2h41l4 4c4 3 4 4 4 9s0 6-4 9l-4 4h-41c-39 0-42 0-45-2zm-115-80c-3-2-6-7-6-11s3-9 6-11 7-2 81-2c75 0 78 0 81 2 1 1 4 3 4 5 4 6 2 13-4 17-3 2-6 2-81 2-74 0-78 0-81-2zm280-68c-3-2-8-8-10-13l-1-10c0-6 1-7 3-10 9-11 25-10 31 2 4 10 4 19-2 26-6 6-14 8-21 5zm-280-12c-3-2-6-7-6-11s3-9 6-11 6-2 17-2c14 0 17 1 20 7 4 6 2 13-4 17-3 2-5 2-17 2-10 0-13 0-16-2zm0-80c-3-2-6-7-6-11s3-9 6-11 7-2 104-2c111 0 104 0 108 6 3 4 3 10 0 14-4 6 3 6-108 6-97 0-101 0-104-2zm383-10c-6-4-8-12-4-18s3-6 55-6c45 0 48 0 51 2s6 7 6 11-3 9-6 11-6 2-51 2-48 0-51-2zm-384-69c-3-2-6-7-6-11s3-9 6-11 6-2 40-2c33 0 36 0 39 2 1 1 4 3 4 5 4 6 2 13-4 17-3 2-6 2-39 2-34 0-37 0-40-2zm119-1c-3-2-6-7-6-11s3-9 6-11 6-2 28-2c27 0 28 0 32 6 3 4 3 10 0 14-4 6-5 6-32 6-22 0-25 0-28-2zm308 0c-6-4-8-12-4-18s1-6 78-6c67 0 71 0 74 2s6 7 6 11-3 9-6 11-7 2-74 2c-68 0-71 0-74-2zm-4 460c1-1-2-4-7-7-4-3-4-3-12-1-23 3-38 7-36 8h55zm267 0v-7c-1-2-10 6-9 7h9z" fill="#8d837d"/><path d="M726 939l-13-4c-19-6-28-14-32-28-1-7-1-27 1-100a2869 2869 0 00-1-108l-312-1-314-1c-5-2-10-7-12-11l-1-288 1-285 2-4c5-7 7-7 34-8h23V88c0-12 1-13 3-17 5-8 3-7 57-7 120 0 196 7 252 21a194 194 0 0166 28l7-4c14-9 34-17 60-24a1083 1083 0 01301-20c7 4 9 10 8 23-1 14-2 13 25 13 27 1 29 1 34 8l2 4 1 125v124l6 10c23 36 33 72 33 115 0 41-11 78-33 113l-5 10-1 38c-1 43 0 40-9 46l-4 4h-52l-53 1v108c2 73 2 93 1 100-4 14-13 22-32 28-13 5-29 6-43 4zm32-37c10-4 10-2 8-42a3579 3579 0 01-3-157l-5-4c-6-2-10-7-11-12-2-7 3-18 10-21l8-3 10-2 8-1 17-4a179 179 0 00120-196 180 180 0 00-303-100 179 179 0 0086 300c8 3 13 8 15 15 2 11 1 93-2 185-1 38-1 38 6 41 10 3 25 4 36 1zm41-281c-8-4-9-14-2-21l9-5c10-6 17-12 26-21 10-10 13-11 19-8s8 7 8 14c-1 4-2 5-10 13-10 10-20 17-31 25-9 5-14 6-19 3zm-190-74c-7-2-9-6-13-23-8-29-6-62 5-89 6-18 20-41 25-43 7-4 14-1 17 6 3 5 2 10-2 15a116 116 0 00-24 75c1 19 2 29 7 41 2 4 2 5 1 9-1 5-6 9-11 10l-5-1zm266-48c-6-3-7-6-8-18a124 124 0 00-119-119c-13-1-16-2-19-8-4-7 1-16 9-18a151 151 0 01154 135c2 19 1 24-6 28-4 2-7 2-11 0zM407 661c0-2-12-5-36-9-51-8-123-13-211-13-39 0-43 0-47-2-5-2-9-7-10-14l-1-171 1-169c6-15 25-16 32-3l3 5v158c0 145 0 159 2 160l36 1c82 0 157 5 209 15 25 4 58 14 69 19 4 3 7 2 7 0l1-34c1-36 1-36 7-41 7-6 15-6 22 0 6 5 6 5 6 43 0 30 0 34 2 35l8-3c13-6 37-13 63-19 3 0 3-3-1-8a217 217 0 01-27-199c27-74 93-127 170-138l13-3-1-5c-3-7 1-15 9-17h28c8 2 12 10 9 17-3 5-2 7 1 7l24 5c27 7 55 20 77 36l9 7c2-1 2-182 1-183-1-2-20-2-23-1-2 1-2 2-2 55 0 50 0 54-2 58l-5 6c-3 3-10 5-12 5l-4-1c-4-1-9-5-11-9-1-3-2-10-2-77v-74l-29-1c-53 0-124 3-168 8-62 7-107 20-123 36l-5 5v12l1 60c0 54 0 52-6 57-4 4-10 5-15 4-6-2-12-7-13-13l-1-63-1-60-4-4c-12-11-44-22-85-29a1304 1304 0 00-234-12v49c-1 52 0 50-7 56-8 8-20 6-26-3l-2-4-1-30v-30l-4-1H78l-1 263 1 262a10253 10253 0 00329-1zM196 522l-6-4c-2-3-2-4-2-8s0-5 2-8l7-4 31-1c24 0 26 1 29 3 4 2 6 8 5 12 0 4-5 9-9 10h-57zm115 0l-6-4c-2-3-2-4-2-8s0-5 2-8l7-4a410 410 0 0183 2c4 2 6 8 5 12 0 4-5 9-9 10h-80zm-115-80l-6-4c-2-3-2-4-2-8s0-5 2-8l7-4a1317 1317 0 01156 1c8 5 8 17 0 22a1785 1785 0 01-156 1zm276-70c-4-2-9-8-10-13v-9c0-15 18-22 28-12 4 3 6 7 7 13 1 7-1 11-4 16-6 6-14 8-21 5zm-276-10l-6-4c-2-3-2-4-2-8s0-5 2-8c4-4 10-5 21-5 8 0 11 1 13 2 8 5 8 17 0 22l-14 2-14-1zm0-80l-6-4c-2-3-2-4-2-8s0-5 2-8l7-4 101-1c91 0 98 1 101 2 2 1 4 3 4 5 4 6 2 14-4 17a2924 2924 0 01-202 1zm382-10c-4-2-8-7-8-12s4-10 8-12h94l7 4c2 3 2 4 2 8s0 5-2 8l-7 4h-94zm-383-69l-6-4c-2-3-2-4-2-8s0-5 2-8l7-4h71c4 2 8 7 8 12s-4 10-8 12h-72zm119-1l-6-4c-2-3-2-4-2-8s0-5 2-8l7-4h48c4 2 8 7 8 12s-4 10-8 12h-49zm307 0c-11-3-10-21 1-24h139l7 4c2 3 2 4 2 8s0 5-2 8l-7 4H621zm-4 459c0-1-3-4-7-6l-6-5-11 1-39 9c-3 3 1 3 31 3 27 0 32-1 32-2zm266-4c0-6-1-7-8-2s-6 5-6 7l7 1h7v-6z" fill="#7a7a7a"/></svg>