<?xml version="1.0" ?><svg id="Layer_1" style="enable-background:new 0 0 512 512;" version="1.1" viewBox="0 0 512 512" xml:space="preserve" xmlns="http://www.w3.org/2000/svg" xmlns:xlink="http://www.w3.org/1999/xlink"><style type="text/css">
	.st0{fill:#69C9C9;}
	.st1{fill:#4D5152;}
</style><polygon class="st0" points="415.8,96.2 401.7,110.3 394.6,103.3 385,112.8 369.8,36.1 446.6,51.3 408.7,89.1 "/><polygon class="st0" points="117.4,408.7 127,399.2 142.2,475.9 65.4,460.7 103.3,422.9 96.2,415.8 110.3,401.7 "/><g><path class="st1" d="M502,256c0-62.4-23.1-121.2-65.1-166.7l50.3-50.3L344.4,10.6l28.3,142.8l36-36l-14.1-14.1l-9.6,9.6l-15.2-76.8   l76.8,15.2l-37.8,37.8l7.1,7.1c88.1,88.1,88.1,231.5,0,319.6c-40.5,40.5-94.2,63.9-151.4,66l0.7,20c62.2-2.3,120.7-27.8,164.8-71.9   C476.4,383.5,502,321.7,502,256z"/><path class="st1" d="M192.2,472.8l-5.6,19.2c16.2,4.7,32.9,7.8,49.8,9.2l1.6-19.9C222.4,480,207,477.2,192.2,472.8z"/><path class="st1" d="M103.3,394.6l14.1,14.1l9.6-9.6l15.2,76.8l-76.8-15.2l37.8-37.8l-7.1-7.1c-88.1-88.1-88.1-231.5,0-319.6   c40.5-40.5,94.2-63.9,151.4-66l-0.7-20C184.6,12.5,126.1,38,82.1,82.1C35.6,128.5,10,190.3,10,256c0,62.4,23.1,121.2,65.1,166.7   l-50.3,50.3l142.8,28.3l-28.3-142.8L103.3,394.6z"/><path class="st1" d="M319.8,39.2l5.6-19.2c-16.2-4.7-32.9-7.8-49.8-9.2l-1.6,19.9C289.6,32,305,34.8,319.8,39.2z"/></g></svg>